<svg width="25" height="24" viewBox="0 0 25 24" fill="none" xmlns="http://www.w3.org/2000/svg">
<path d="M18 6.5L24 22L9 16L2 0.999998L18 6.5Z" fill="#F0F4F4"/>
<path d="M2 0.999998L8.49794 14.9242C8.82048 15.6153 9.39416 16.1577 10.1023 16.4409L24 22" stroke="#E23C3C" stroke-width="3"/>
<path d="M21.5 15.5L18.3327 7.35556C18.1215 6.81243 17.6839 6.38843 17.1344 6.19448L9.5 3.5" stroke="#6E3030" stroke-width="3"/>
<path d="M10.6123 14L11.7163 9.62H12.6823L13.7923 14H13.0243L12.7843 12.938H11.6203L11.3803 14H10.6123ZM11.7583 12.326H12.6463L12.3823 11.15C12.3383 10.954 12.3003 10.778 12.2683 10.622C12.2363 10.462 12.2143 10.346 12.2023 10.274C12.1903 10.346 12.1683 10.462 12.1363 10.622C12.1043 10.778 12.0663 10.952 12.0223 11.144L11.7583 12.326Z" fill="#E23C3C"/>
<path d="M14.45 14V9.62H15.752C16.048 9.62 16.304 9.678 16.52 9.794C16.74 9.906 16.91 10.064 17.03 10.268C17.15 10.472 17.21 10.712 17.21 10.988V12.626C17.21 12.902 17.15 13.144 17.03 13.352C16.91 13.556 16.74 13.716 16.52 13.832C16.304 13.944 16.048 14 15.752 14H14.45ZM15.2 13.328H15.752C15.968 13.328 16.14 13.266 16.268 13.142C16.396 13.014 16.46 12.842 16.46 12.626V10.988C16.46 10.776 16.396 10.608 16.268 10.484C16.14 10.356 15.968 10.292 15.752 10.292H15.2V13.328Z" fill="#6E3030"/>
</svg>
